<svg width="1200" height="495" viewBox="0 0 1200 495" fill="none" xmlns="http://www.w3.org/2000/svg">
<path d="M419.938 167.111V326.657H386.206V199.129H385.271L348.735 222.033V192.118L388.232 167.111H419.938ZM520.414 330.162C507.015 330.11 495.485 326.813 485.825 320.269C476.217 313.725 468.816 304.247 463.623 291.834C458.481 279.421 455.936 264.49 455.988 247.04C455.988 229.641 458.559 214.814 463.7 202.557C468.894 190.3 476.295 180.978 485.903 174.59C495.563 168.15 507.067 164.93 520.414 164.93C533.761 164.93 545.239 168.15 554.847 174.59C564.507 181.03 571.934 190.378 577.128 202.635C582.321 214.84 584.892 229.641 584.84 247.04C584.84 264.542 582.243 279.499 577.05 291.912C571.908 304.324 564.533 313.803 554.925 320.347C545.317 326.89 533.813 330.162 520.414 330.162ZM520.414 302.195C529.555 302.195 536.852 297.599 542.305 288.406C547.758 279.214 550.459 265.425 550.407 247.04C550.407 234.939 549.16 224.863 546.667 216.813C544.226 208.763 540.747 202.713 536.228 198.662C531.762 194.611 526.49 192.585 520.414 192.585C511.325 192.585 504.054 197.13 498.601 206.218C493.148 215.307 490.395 228.914 490.343 247.04C490.343 259.296 491.564 269.528 494.005 277.734C496.498 285.887 500.003 292.016 504.522 296.119C509.04 300.17 514.338 302.195 520.414 302.195ZM636.938 206.997L658.906 248.831L681.42 206.997H715.464L680.797 266.827L716.399 326.657H682.511L658.906 285.29L635.691 326.657H601.414L636.938 266.827L602.66 206.997H636.938ZM822.347 212.996C821.724 206.712 819.049 201.83 814.323 198.35C809.597 194.871 803.183 193.131 795.081 193.131C789.576 193.131 784.928 193.91 781.136 195.468C777.345 196.974 774.437 199.077 772.411 201.778C770.438 204.479 769.451 207.543 769.451 210.971C769.347 213.827 769.944 216.32 771.243 218.449C772.593 220.579 774.437 222.422 776.774 223.98C779.111 225.486 781.812 226.811 784.876 227.953C787.94 229.044 791.212 229.979 794.692 230.758L809.026 234.186C815.985 235.744 822.373 237.821 828.19 240.418C834.007 243.015 839.044 246.209 843.303 250C847.562 253.791 850.86 258.258 853.197 263.399C855.586 268.541 856.806 274.436 856.858 281.083C856.806 290.847 854.313 299.313 849.38 306.48C844.498 313.595 837.434 319.126 828.19 323.073C818.997 326.968 807.909 328.916 794.925 328.916C782.045 328.916 770.827 326.942 761.271 322.995C751.767 319.048 744.34 313.205 738.991 305.467C733.693 297.677 730.915 288.043 730.655 276.565H763.297C763.66 281.914 765.192 286.381 767.893 289.964C770.645 293.496 774.307 296.171 778.877 297.988C783.499 299.754 788.719 300.637 794.536 300.637C800.249 300.637 805.208 299.806 809.415 298.144C813.674 296.482 816.972 294.171 819.309 291.211C821.646 288.25 822.815 284.849 822.815 281.005C822.815 277.422 821.75 274.41 819.621 271.969C817.543 269.528 814.479 267.45 810.428 265.736C806.429 264.023 801.521 262.465 795.704 261.062L778.332 256.7C764.881 253.428 754.26 248.312 746.469 241.353C738.679 234.393 734.81 225.019 734.862 213.23C734.81 203.57 737.381 195.13 742.574 187.911C747.82 180.692 755.013 175.057 764.154 171.006C773.294 166.955 783.681 164.93 795.315 164.93C807.156 164.93 817.491 166.955 826.32 171.006C835.201 175.057 842.109 180.692 847.042 187.911C851.976 195.13 854.521 203.492 854.677 212.996H822.347ZM879.548 326.657V167.111H942.493C954.542 167.111 964.826 169.266 973.343 173.577C981.912 177.836 988.43 183.886 992.897 191.728C997.415 199.519 999.674 208.685 999.674 219.228C999.674 229.823 997.389 238.938 992.819 246.572C988.249 254.155 981.627 259.972 972.954 264.023C964.332 268.074 953.893 270.099 941.636 270.099H899.491V242.989H936.183C942.623 242.989 947.973 242.106 952.231 240.34C956.49 238.574 959.658 235.926 961.735 232.394C963.865 228.862 964.929 224.474 964.929 219.228C964.929 213.931 963.865 209.464 961.735 205.829C959.658 202.193 956.464 199.441 952.153 197.571C947.895 195.65 942.519 194.689 936.027 194.689H913.28V326.657H879.548ZM965.709 254.051L1005.36 326.657H968.124L929.328 254.051H965.709ZM1023.51 326.657V167.111H1131.02V194.922H1057.24V232.939H1125.49V260.751H1057.24V298.845H1131.33V326.657H1023.51Z" fill="url(#paint0_linear_67_14)"/>
<path d="M267.872 240.174C267.845 234.085 272.744 229.128 278.814 229.1C284.884 229.073 289.827 233.987 289.854 240.075C289.881 246.164 284.983 251.121 278.913 251.148C272.843 251.176 267.9 246.262 267.872 240.174Z" fill="url(#paint1_linear_67_14)"/>
<path d="M234.414 206.914C234.387 200.826 239.286 195.868 245.356 195.841C251.426 195.814 256.369 200.728 256.396 206.816C256.423 212.904 251.525 217.862 245.455 217.889C239.385 217.916 234.442 213.003 234.414 206.914Z" fill="url(#paint2_linear_67_14)"/>
<path d="M267.721 206.768C267.694 200.679 272.592 195.722 278.662 195.695C284.732 195.667 289.675 200.581 289.703 206.669C289.73 212.758 284.831 217.715 278.761 217.743C272.691 217.77 267.748 212.856 267.721 206.768Z" fill="url(#paint3_linear_67_14)"/>
<path d="M234.268 174.175C234.241 168.087 239.139 163.129 245.209 163.102C251.279 163.075 256.222 167.988 256.249 174.077C256.277 180.165 251.378 185.123 245.308 185.15C239.238 185.177 234.295 180.263 234.268 174.175Z" fill="url(#paint4_linear_67_14)"/>
<path d="M201.631 174.322C201.604 168.233 206.503 163.276 212.573 163.248C218.643 163.221 223.585 168.135 223.613 174.223C223.64 180.311 218.741 185.269 212.671 185.296C206.601 185.323 201.658 180.41 201.631 174.322Z" fill="url(#paint5_linear_67_14)"/>
<path d="M267.575 174.027C267.547 167.939 272.446 162.981 278.516 162.954C284.586 162.927 289.529 167.84 289.556 173.929C289.583 180.017 284.685 184.975 278.615 185.002C272.545 185.029 267.602 180.115 267.575 174.027Z" fill="url(#paint6_linear_67_14)"/>
<path d="M234.121 141.436C234.094 135.347 238.993 130.39 245.063 130.363C251.133 130.335 256.076 135.249 256.103 141.337C256.13 147.426 251.232 152.383 245.162 152.411C239.092 152.438 234.149 147.524 234.121 141.436Z" fill="url(#paint7_linear_67_14)"/>
<path d="M201.485 141.58C201.457 135.492 206.356 130.534 212.426 130.507C218.496 130.48 223.439 135.394 223.466 141.482C223.494 147.57 218.595 152.528 212.525 152.555C206.455 152.582 201.512 147.669 201.485 141.58Z" fill="url(#paint8_linear_67_14)"/>
<path d="M168.845 141.727C168.818 135.638 173.716 130.681 179.786 130.654C185.856 130.626 190.799 135.54 190.827 141.628C190.854 147.717 185.955 152.674 179.885 152.702C173.815 152.729 168.872 147.815 168.845 141.727Z" fill="url(#paint9_linear_67_14)"/>
<path d="M135.686 174.62C135.659 168.531 140.558 163.573 146.628 163.546C152.699 163.519 157.642 168.432 157.669 174.521C157.697 180.61 152.798 185.568 146.727 185.595C140.657 185.622 135.714 180.708 135.686 174.62Z" fill="url(#paint10_linear_67_14)"/>
<path d="M135.536 141.88C135.509 135.792 140.408 130.834 146.478 130.806C152.549 130.779 157.492 135.693 157.519 141.782C157.546 147.871 152.647 152.829 146.577 152.856C140.506 152.883 135.563 147.969 135.536 141.88Z" fill="url(#paint11_linear_67_14)"/>
<path d="M103.15 207.504C103.122 201.416 108.021 196.458 114.091 196.431C120.161 196.404 125.104 201.317 125.131 207.406C125.159 213.494 120.26 218.452 114.19 218.479C108.12 218.506 103.177 213.593 103.15 207.504Z" fill="url(#paint12_linear_67_14)"/>
<path d="M103.003 174.763C102.976 168.675 107.875 163.717 113.945 163.69C120.015 163.663 124.958 168.577 124.985 174.665C125.012 180.753 120.113 185.711 114.043 185.738C107.973 185.765 103.031 180.852 103.003 174.763Z" fill="url(#paint13_linear_67_14)"/>
<path d="M102.857 142.026C102.83 135.938 107.728 130.98 113.798 130.953C119.868 130.926 124.811 135.839 124.838 141.928C124.866 148.016 119.967 152.974 113.897 153.001C107.827 153.028 102.884 148.115 102.857 142.026Z" fill="url(#paint14_linear_67_14)"/>
<path d="M201.331 107.466C201.304 101.378 206.203 96.4201 212.273 96.3929C218.343 96.3657 223.286 101.279 223.313 107.368C223.34 113.456 218.442 118.414 212.372 118.441C206.302 118.468 201.359 113.554 201.331 107.466Z" fill="url(#paint15_linear_67_14)"/>
<path d="M168.691 107.611C168.664 101.522 173.562 96.5646 179.632 96.5374C185.702 96.5102 190.645 101.424 190.672 107.512C190.7 113.601 185.801 118.558 179.731 118.585C173.661 118.613 168.718 113.699 168.691 107.611Z" fill="url(#paint16_linear_67_14)"/>
<path d="M135.386 107.764C135.358 101.675 140.257 96.7174 146.328 96.6902C152.398 96.663 157.341 101.577 157.369 107.666C157.396 113.754 152.497 118.712 146.426 118.74C140.356 118.767 135.413 113.853 135.386 107.764Z" fill="url(#paint17_linear_67_14)"/>
<path d="M69.285 241.064C69.2577 234.976 74.1567 230.018 80.2271 229.991C86.2976 229.963 91.2407 234.877 91.268 240.966C91.2953 247.055 86.3963 252.013 80.3259 252.04C74.2554 252.067 69.3122 247.153 69.285 241.064Z" fill="url(#paint18_linear_67_14)"/>
<path d="M69.1346 207.659C69.1073 201.57 74.0063 196.612 80.0767 196.585C86.1472 196.558 91.0903 201.472 91.1176 207.561C91.1449 213.65 86.2459 218.607 80.1755 218.635C74.105 218.662 69.1619 213.748 69.1346 207.659Z" fill="url(#paint19_linear_67_14)"/>
<path d="M68.9881 174.922C68.9608 168.833 73.8598 163.875 79.9302 163.848C86.0007 163.821 90.9439 168.735 90.9711 174.823C90.9984 180.912 86.0994 185.87 80.029 185.897C73.9585 185.925 69.0154 181.011 68.9881 174.922Z" fill="url(#paint20_linear_67_14)"/>
<path d="M168.544 74.8347C168.517 68.7463 173.416 63.7887 179.486 63.7615C185.556 63.7344 190.499 68.6479 190.526 74.7363C190.553 80.8246 185.654 85.7823 179.584 85.8095C173.514 85.8367 168.572 80.9231 168.544 74.8347Z" fill="url(#paint21_linear_67_14)"/>
<path d="M180 423.992C251.234 362.977 287.006 206.25 180 206.25C72.9939 206.25 108.766 362.977 180 423.992Z" fill="url(#paint22_linear_67_14)"/>
<path d="M180.343 229.17C247.692 229.17 200.152 335.621 180.343 348.928C160.534 335.621 112.994 229.17 180.343 229.17Z" fill="white"/>
<path d="M166.764 231.185C128.752 242.828 138.203 285.575 148.58 319.74C159.319 295.596 177.181 252.891 166.764 231.185Z" fill="white"/>
<path d="M180.82 229.212C217.779 227.58 228.47 274.057 217.779 301.025C210.191 275.651 175.928 253.15 180.82 229.212Z" fill="white"/>
<defs>
<linearGradient id="paint0_linear_67_14" x1="337.595" y1="247.157" x2="1144.59" y2="247.157" gradientUnits="userSpaceOnUse">
<stop stop-color="#FACC15"/>
<stop offset="1" stop-color="#F25533"/>
</linearGradient>
<linearGradient id="paint1_linear_67_14" x1="278.913" y1="251.148" x2="278.814" y2="229.1" gradientUnits="userSpaceOnUse">
<stop stop-color="#FACC15"/>
<stop offset="1" stop-color="#F25533"/>
</linearGradient>
<linearGradient id="paint2_linear_67_14" x1="245.455" y1="217.889" x2="245.356" y2="195.841" gradientUnits="userSpaceOnUse">
<stop stop-color="#FACC15"/>
<stop offset="1" stop-color="#F25533"/>
</linearGradient>
<linearGradient id="paint3_linear_67_14" x1="278.761" y1="217.743" x2="278.662" y2="195.695" gradientUnits="userSpaceOnUse">
<stop stop-color="#FACC15"/>
<stop offset="1" stop-color="#F25533"/>
</linearGradient>
<linearGradient id="paint4_linear_67_14" x1="245.308" y1="185.15" x2="245.209" y2="163.102" gradientUnits="userSpaceOnUse">
<stop stop-color="#FACC15"/>
<stop offset="1" stop-color="#F25533"/>
</linearGradient>
<linearGradient id="paint5_linear_67_14" x1="212.671" y1="185.296" x2="212.573" y2="163.248" gradientUnits="userSpaceOnUse">
<stop stop-color="#FACC15"/>
<stop offset="1" stop-color="#F25533"/>
</linearGradient>
<linearGradient id="paint6_linear_67_14" x1="278.615" y1="185.002" x2="278.516" y2="162.954" gradientUnits="userSpaceOnUse">
<stop stop-color="#FACC15"/>
<stop offset="1" stop-color="#F25533"/>
</linearGradient>
<linearGradient id="paint7_linear_67_14" x1="245.162" y1="152.411" x2="245.063" y2="130.363" gradientUnits="userSpaceOnUse">
<stop stop-color="#FACC15"/>
<stop offset="1" stop-color="#F25533"/>
</linearGradient>
<linearGradient id="paint8_linear_67_14" x1="212.525" y1="152.555" x2="212.426" y2="130.507" gradientUnits="userSpaceOnUse">
<stop stop-color="#FACC15"/>
<stop offset="1" stop-color="#F25533"/>
</linearGradient>
<linearGradient id="paint9_linear_67_14" x1="179.885" y1="152.702" x2="179.786" y2="130.654" gradientUnits="userSpaceOnUse">
<stop stop-color="#FACC15"/>
<stop offset="1" stop-color="#F25533"/>
</linearGradient>
<linearGradient id="paint10_linear_67_14" x1="146.727" y1="185.595" x2="146.628" y2="163.546" gradientUnits="userSpaceOnUse">
<stop stop-color="#FACC15"/>
<stop offset="1" stop-color="#F25533"/>
</linearGradient>
<linearGradient id="paint11_linear_67_14" x1="146.577" y1="152.856" x2="146.478" y2="130.806" gradientUnits="userSpaceOnUse">
<stop stop-color="#FACC15"/>
<stop offset="1" stop-color="#F25533"/>
</linearGradient>
<linearGradient id="paint12_linear_67_14" x1="114.19" y1="218.479" x2="114.091" y2="196.431" gradientUnits="userSpaceOnUse">
<stop stop-color="#FACC15"/>
<stop offset="1" stop-color="#F25533"/>
</linearGradient>
<linearGradient id="paint13_linear_67_14" x1="114.043" y1="185.738" x2="113.945" y2="163.69" gradientUnits="userSpaceOnUse">
<stop stop-color="#FACC15"/>
<stop offset="1" stop-color="#F25533"/>
</linearGradient>
<linearGradient id="paint14_linear_67_14" x1="113.897" y1="153.001" x2="113.798" y2="130.953" gradientUnits="userSpaceOnUse">
<stop stop-color="#FACC15"/>
<stop offset="1" stop-color="#F25533"/>
</linearGradient>
<linearGradient id="paint15_linear_67_14" x1="212.372" y1="118.441" x2="212.273" y2="96.3929" gradientUnits="userSpaceOnUse">
<stop stop-color="#FACC15"/>
<stop offset="1" stop-color="#F25533"/>
</linearGradient>
<linearGradient id="paint16_linear_67_14" x1="179.731" y1="118.585" x2="179.632" y2="96.5374" gradientUnits="userSpaceOnUse">
<stop stop-color="#FACC15"/>
<stop offset="1" stop-color="#F25533"/>
</linearGradient>
<linearGradient id="paint17_linear_67_14" x1="146.426" y1="118.74" x2="146.328" y2="96.6902" gradientUnits="userSpaceOnUse">
<stop stop-color="#FACC15"/>
<stop offset="1" stop-color="#F25533"/>
</linearGradient>
<linearGradient id="paint18_linear_67_14" x1="80.3259" y1="252.04" x2="80.2271" y2="229.991" gradientUnits="userSpaceOnUse">
<stop stop-color="#FACC15"/>
<stop offset="1" stop-color="#F25533"/>
</linearGradient>
<linearGradient id="paint19_linear_67_14" x1="80.1755" y1="218.635" x2="80.0767" y2="196.585" gradientUnits="userSpaceOnUse">
<stop stop-color="#FACC15"/>
<stop offset="1" stop-color="#F25533"/>
</linearGradient>
<linearGradient id="paint20_linear_67_14" x1="80.029" y1="185.897" x2="79.9302" y2="163.848" gradientUnits="userSpaceOnUse">
<stop stop-color="#FACC15"/>
<stop offset="1" stop-color="#F25533"/>
</linearGradient>
<linearGradient id="paint21_linear_67_14" x1="179.584" y1="85.8095" x2="179.486" y2="63.7615" gradientUnits="userSpaceOnUse">
<stop stop-color="#FACC15"/>
<stop offset="1" stop-color="#F25533"/>
</linearGradient>
<linearGradient id="paint22_linear_67_14" x1="180" y1="423.992" x2="180" y2="206.25" gradientUnits="userSpaceOnUse">
<stop stop-color="#FACC15"/>
<stop offset="1" stop-color="#F03838"/>
</linearGradient>
</defs>
</svg>
